Coordinates
version=1
nRows=12
nColumns=33
inDegrees=yes

Units are S.I. units (second, meters, Newtons, ...)
Angles are in degrees.

endheader
time	ground_thorax_rot_x	ground_thorax_rot_y	ground_thorax_rot_z	ground_thorax_tx	ground_thorax_ty	ground_thorax_tz	clav_prot_r	clav_elev_r	scapula_abduction_r	scapula_elevation_r	scapula_upward_rot_r	scapula_winging_r	shoulder_elv_r	plane_of_elev_r	axial_rot_r	elbow_flexion_r	pro_sup_r	wrist_flex_r	wrist_dev_r	clav_prot_l	clav_elev_l	scapula_abduction_l	scapula_elevation_l	scapula_upward_rot_l	scapula_winging_l	shoulder_elv_l	plane_of_elev_l	axial_rot_l	elbow_flexion_l	pro_sup_l	wrist_flex_l	wrist_dev_l
      3.97000000	     -0.35940716	     11.54738370	      0.98578346	     -0.19060382	      0.99798836	      0.01011776	    -16.61124533	    -18.23082383	    -21.58128834	    -12.24930225	      4.63076831	      8.24689462	     43.33968201	    -12.83444253	     22.93251553	     39.56298277	      5.26347957	     -4.55400305	     20.41356646	      3.26881706	     -8.29183477	     -7.16001173	     -2.45422798	    -10.00482316	     -0.13645277	     54.94306860	     -7.02208171	    -11.61630333	     59.32236380	      7.77069338	     22.37003232	      6.01356319
      3.98000000	     -0.54434643	     11.81087803	      1.25766190	     -0.19053431	      0.99768656	      0.00997857	    -16.46048060	    -18.18208133	    -21.32507735	    -12.19741145	      4.64338069	      8.20166441	     42.70823480	    -11.79276548	     22.63488025	     36.79797196	      6.26673130	     -3.47201910	     19.63526266	      3.73232603	     -8.17624471	     -7.89935154	     -2.65738283	    -10.22251057	      0.14174041	     54.99702758	     -5.19199135	    -11.63924836	     56.37068325	      8.02156287	     23.54486999	      5.39302761
      3.99000000	     -0.47265429	     11.92667052	      1.09100961	     -0.19026148	      0.99810987	      0.00980971	    -16.14670408	    -18.61117354	    -20.72391945	    -12.62160902	      4.71490950	      8.46020147	     42.79939111	    -11.20250807	     22.55258243	     34.75559996	      6.82178366	     -3.60182283	     19.30990470	      4.09797830	     -8.71951380	     -8.63312685	     -2.09335008	    -10.05340187	      0.25796857	     54.97280392	     -4.06979167	    -11.76761538	     53.68285678	      8.44166735	     23.73784355	      5.55693941
      4.00000000	     -0.51993996	     12.11181939	      1.11080842	     -0.18990879	      0.99828514	      0.00968520	    -16.00298574	    -18.75865871	    -20.49205812	    -12.74295459	      4.67334505	      8.55647740	     42.48573602	    -10.30285919	     22.02433304	     32.49517007	      7.84353329	     -3.07091386	     18.50847247	      4.42157338	     -8.86877219	     -9.25136427	     -1.90187820	     -9.91112094	      0.44675655	     54.68036816	     -2.52281740	    -11.68431366	     50.58955068	      8.90048717	     24.13906477	      5.02955677
      4.01000000	     -0.53017554	     12.21160609	      1.02274357	     -0.18976751	      0.99846903	      0.00957067	    -15.66815022	    -19.03313687	    -19.88808332	    -13.00367250	      4.70870802	      8.71242099	     42.51055527	     -9.69475518	     21.97165948	     30.67604146	      8.57021073	     -3.04121666	     18.13501951	      4.81559766	     -9.20943838	    -10.04068783	     -1.48695256	     -9.64895285	      0.65176876	     54.62451757	     -1.40749409	    -12.09171970	     47.83396334	      9.42329629	     24.30042004	      4.91268835
      4.02000000	     -0.63115707	     12.37630262	      1.15009024	     -0.18930214	      0.99847995	      0.00946521	    -15.61990049	    -19.03272882	    -19.87043066	    -12.95941092	      4.58839720	      8.72822010	     42.09732017	     -8.77283009	     21.09384128	     28.78487993	     10.00378603	     -2.40285241	     17.29422089	      5.12430288	     -9.09587022	    -10.63400249	     -1.50718715	     -9.43818623	      0.92671677	     54.07028657	      0.24360887	    -11.96667900	     44.51598723	     10.24628289	     24.33106142	      3.75124638
      4.03000000	     -0.60646287	     12.41131196	      1.05200941	     -0.18907580	      0.99885557	      0.00940580	    -15.32932166	    -19.31062645	    -19.34717009	    -13.22232654	      4.61215436	      8.88983263	     42.18010066	     -8.28751905	     20.91075392	     27.38697697	     10.71083930	     -2.50898930	     17.08659713	      5.51031868	     -9.48108472	    -11.41354235	     -1.04702389	     -9.16138773	      1.11707784	     53.97352744	      1.19182809	    -12.33392148	     41.82327229	     10.94594235	     24.29747507	      3.64609715
      4.04000000	     -0.55963654	     12.45975050	      0.90771984	     -0.18866394	      0.99921647	      0.00939484	    -15.17173726	    -19.49820306	    -19.09251259	    -13.38150967	      4.56658369	      9.01284916	     42.16546571	     -7.65143293	     20.22203483	     26.14604484	     11.53548060	     -2.50411796	     16.66106401	      5.80718351	     -9.77278555	    -12.03327464	     -0.66826683	     -8.87548621	      1.27580274	     53.67913091	      2.37015741	    -12.36908830	     38.92004142	     11.73316618	     24.07736609	      3.29675086
      4.05000000	     -0.78511296	     12.61260325	      1.18172763	     -0.18808955	      0.99901120	      0.00931997	    -15.18738182	    -19.35451040	    -19.26322855	    -13.15536153	      4.31557998	      8.95372936	     41.67707626	     -6.97080468	     18.58666367	     25.13348939	     13.48192169	     -1.99712163	     16.06872810	      6.15207882	     -9.29452178	    -12.67670430	     -1.01348291	     -8.64986716	      1.70922718	     52.91077492	      4.05346622	    -12.06539402	     35.72811362	     13.33428888	     23.35171396	      1.38141053
      4.06000000	     -1.07700764	     12.84322211	      1.28009720	     -0.18805666	      0.99904132	      0.00938628	    -15.12222220	    -19.54882757	    -19.07850878	    -13.38147803	      4.42965435	      9.06647405	     41.27788785	     -6.95947623	     17.09706343	     24.54622100	     16.27264844	     -1.75110804	     16.51353179	      6.96586549	     -8.90779984	    -14.19554986	     -1.20318641	     -8.24504043	      2.47938308	     52.46565424	      5.24964461	    -11.73951137	     33.06591201	     16.08691639	     22.96449594	     -0.55946647
      4.07000000	     -0.92996251	     12.71185274	      1.34244594	     -0.18749505	      0.99981838	      0.00954386	    -15.06406139	    -19.74506904	    -18.97047517	    -13.56860049	      4.42242414	      9.20154337	     41.33827881	     -6.74981341	     16.75483781	     24.09947258	     16.45178618	     -1.90187917	     16.40658509	      7.15842513	     -9.48657760	    -14.60123371	     -0.62531215	     -8.10172850	      2.45059755	     52.30803787	      5.67838945	    -11.59915266	     30.97118204	     16.53786932	     22.98968264	     -0.09457017
      4.08000000	     -0.78378198	     12.71146431	      0.81752818	     -0.18667851	      1.00006684	      0.00958943	    -15.03129094	    -19.82479657	    -18.90436640	    -13.64843372	      4.43166212	      9.25412921	     41.43811308	     -6.17935849	     15.82678577	     24.10102540	     16.85435421	     -1.89491880	     16.08202736	      7.37412967	     -9.82914181	    -15.08468698	     -0.19677339	     -7.80144734	      2.54431474	     52.16907659	      6.76615680	    -11.18140338	     28.84733200	     17.28707437	     22.70664732	      0.09342397
